<svg width="23" height="29" viewBox="0 0 23 29" fill="none" xmlns="http://www.w3.org/2000/svg">
<path d="M5.30769 1.76923V5.30769H7.07692V7.07692H15.9231V5.30769H17.6923V1.76923H14.1538V3.53846H12.3846V1.76923H10.6154V3.53846H8.84615V1.76923H5.30769Z" fill="white"/>
<path d="M14.1538 17.6923H10.6154V14.1538H14.1538V17.6923Z" fill="white"/>
<path fill-rule="evenodd" clip-rule="evenodd" d="M7.07692 8.84615V10.6154H5.30769V12.3846H3.53846V14.1538H1.76923V23H3.53846V24.7692H5.30769V26.5385H17.6923V24.7692H19.4615V23H21.2308V14.1538H19.4615V12.3846H17.6923V10.6154H15.9231V8.84615H7.07692ZM15.9231 17.6923V14.1538H14.1538V12.3846H8.84615V17.6923H7.07692V19.4615H8.84615V21.2308H7.07692V23H8.84615V24.7692H10.6154V23H14.1538V21.2308H10.6154V19.4615H14.1538V17.6923H15.9231Z" fill="white"/>
<path fill-rule="evenodd" clip-rule="evenodd" d="M8.84615 23V24.7692H10.6154V23H14.1538V21.2308H10.6154V19.4615H14.1538V17.6923H15.9231V14.1538H14.1538V12.3846H8.84615V17.6923H7.07692V19.4615H8.84615V21.2308H7.07692V23H8.84615ZM14.1538 14.1538H10.6154V17.6923H14.1538V14.1538Z" fill="black"/>
<path fill-rule="evenodd" clip-rule="evenodd" d="M5.30769 0V1.76923H3.53846V5.30769H5.30769V7.07692H7.07692V8.84615H5.30769V10.6154H3.53846V12.3846H1.76923V14.1538H0V23H1.76923V24.7692H3.53846V26.5385H5.30769V28.3077H17.6923V26.5385H19.4615V24.7692H21.2308V23H23V14.1538H21.2308V12.3846H19.4615V10.6154H17.6923V8.84615H15.9231V7.07692H17.6923V5.30769H19.4615V1.76923H17.6923V0H5.30769ZM17.6923 1.76923V5.30769H15.9231V7.07692H7.07692V5.30769H5.30769V1.76923H8.84615V3.53846H10.6154V1.76923H12.3846V3.53846H14.1538V1.76923H17.6923ZM15.9231 8.84615V10.6154H17.6923V12.3846H19.4615V14.1538H21.2308V23H19.4615V24.7692H17.6923V26.5385H5.30769V24.7692H3.53846V23H1.76923V14.1538H3.53846V12.3846H5.30769V10.6154H7.07692V8.84615H15.9231Z" fill="black"/>
</svg>
