<svg width="23" height="22" viewBox="0 0 23 22" fill="none" xmlns="http://www.w3.org/2000/svg">
<path d="M8.81831 21.4011C8.02412 21.4014 7.26213 21.0871 6.69898 20.5271L1.87041 15.6986C1.30938 15.1337 0.994507 14.3699 0.994507 13.5738C0.994507 12.7777 1.30938 12.0139 1.87041 11.449L11.9754 1.38767C12.5452 0.840227 13.3047 0.534485 14.0948 0.534485C14.8849 0.534485 15.6444 0.840227 16.2141 1.38767L21.0427 6.20531C21.6037 6.77016 21.9186 7.53397 21.9186 8.3301C21.9186 9.12622 21.6037 9.89004 21.0427 10.4549L10.9486 20.5599C10.3761 21.1086 9.61117 21.4106 8.81831 21.4011V21.4011ZM14.0948 2.10867C13.9156 2.10796 13.7381 2.14339 13.5729 2.21284C13.4077 2.28229 13.2583 2.38434 13.1334 2.51288L3.0284 12.607C2.7768 12.8659 2.63606 13.2128 2.63606 13.5738C2.63606 13.9348 2.7768 14.2817 3.0284 14.5406L7.85696 19.3692C8.11591 19.6208 8.46273 19.7615 8.82377 19.7615C9.18481 19.7615 9.53163 19.6208 9.79058 19.3692L19.8847 9.26413C20.0119 9.13728 20.1127 8.98659 20.1816 8.82069C20.2504 8.65479 20.2859 8.47694 20.2859 8.29733C20.2859 8.11771 20.2504 7.93986 20.1816 7.77396C20.1127 7.60806 20.0119 7.45737 19.8847 7.33052L15.0561 2.4801C14.9286 2.35748 14.7779 2.26148 14.6128 2.19771C14.4477 2.13394 14.2716 2.10367 14.0948 2.10867V2.10867Z" fill="white"/>
<path d="M14.0948 11.8423C13.8916 11.8476 13.6895 11.8105 13.5014 11.7333C13.3133 11.6562 13.1434 11.5408 13.0024 11.3944L11.2545 9.6574C11.1091 9.515 10.9937 9.34503 10.9148 9.15745C10.836 8.96986 10.7954 8.76844 10.7954 8.56497C10.7954 8.36149 10.836 8.16007 10.9148 7.97248C10.9937 7.7849 11.1091 7.61493 11.2545 7.47253L13.1007 5.62631C13.2431 5.48098 13.413 5.36551 13.6006 5.28669C13.7882 5.20787 13.9896 5.16727 14.1931 5.16727C14.3966 5.16727 14.598 5.20787 14.7856 5.28669C14.9732 5.36551 15.1431 5.48098 15.2855 5.62631L17.0225 7.37421C17.1706 7.51503 17.2885 7.68449 17.3691 7.87229C17.4496 8.06008 17.4912 8.2623 17.4912 8.46665C17.4912 8.67099 17.4496 8.87321 17.3691 9.06101C17.2885 9.2488 17.1706 9.41826 17.0225 9.55908L15.1763 11.4053C15.0356 11.5484 14.867 11.661 14.681 11.7362C14.4949 11.8113 14.2954 11.8475 14.0948 11.8423V11.8423ZM12.5217 8.56497L14.0948 10.1271L15.799 8.42295L14.204 6.90446L12.5217 8.56497Z" fill="white"/>
<path d="M21.7418 21.9692H0.985556C0.768257 21.9692 0.559858 21.8829 0.406205 21.7292C0.252551 21.5756 0.166229 21.3672 0.166229 21.1499C0.166229 20.9326 0.252551 20.7242 0.406205 20.5705C0.559858 20.4169 0.768257 20.3305 0.985556 20.3305H21.7418C21.9591 20.3305 22.1675 20.4169 22.3212 20.5705C22.4748 20.7242 22.5612 20.9326 22.5612 21.1499C22.5612 21.3672 22.4748 21.5756 22.3212 21.7292C22.1675 21.8829 21.9591 21.9692 21.7418 21.9692V21.9692Z" fill="white"/>
<path d="M6.44773 14.3221C6.24287 14.3095 6.04921 14.2243 5.90151 14.0818C5.74808 13.9282 5.6619 13.7199 5.6619 13.5028C5.6619 13.2857 5.74808 13.0774 5.90151 12.9238L8.08638 10.7389C8.1617 10.6616 8.25174 10.6002 8.35118 10.5582C8.45062 10.5163 8.55745 10.4947 8.66537 10.4947C8.7733 10.4947 8.88013 10.5163 8.97957 10.5582C9.07901 10.6002 9.16905 10.6616 9.24437 10.7389C9.3978 10.8926 9.48398 11.1008 9.48398 11.3179C9.48398 11.535 9.3978 11.7433 9.24437 11.8969L7.05949 14.0818C6.89526 14.2394 6.67537 14.3258 6.44773 14.3221V14.3221Z" fill="white"/>
<path d="M8.6326 16.507C8.42775 16.4944 8.23409 16.4092 8.08639 16.2667C7.93295 16.113 7.84677 15.9048 7.84677 15.6877C7.84677 15.4705 7.93295 15.2623 8.08639 15.1087L10.2713 12.9238C10.3466 12.8465 10.4366 12.7851 10.5361 12.7431C10.6355 12.7012 10.7423 12.6796 10.8502 12.6796C10.9582 12.6796 11.065 12.7012 11.1644 12.7431C11.2639 12.7851 11.3539 12.8465 11.4292 12.9238C11.5827 13.0774 11.6689 13.2857 11.6689 13.5028C11.6689 13.7199 11.5827 13.9282 11.4292 14.0818L9.24437 16.2667C9.08013 16.4243 8.86024 16.5107 8.6326 16.507Z" fill="white"/>
</svg>
