<svg width="28" height="27" viewBox="0 0 28 27" fill="none" xmlns="http://www.w3.org/2000/svg">
<path d="M21.0688 21.1288H6.72515C6.55345 21.1304 6.38572 21.0772 6.24627 20.977C6.10681 20.8769 6.00288 20.7349 5.94952 20.5717L2.46465 9.94228C2.41125 9.78943 2.40565 9.62395 2.44858 9.46784C2.49151 9.31173 2.58094 9.17238 2.70498 9.06833C2.82749 8.96084 2.97963 8.89289 3.14144 8.8734C3.30325 8.8539 3.46717 8.88377 3.6117 8.95909L9.96968 12.1272L13.247 5.76917C13.3225 5.64242 13.4297 5.53746 13.558 5.46457C13.6863 5.39168 13.8314 5.35336 13.9789 5.35336C14.1265 5.35336 14.2715 5.39168 14.3998 5.46457C14.5281 5.53746 14.6353 5.64242 14.7109 5.76917L17.9882 12.1381L24.3571 8.97001C24.4999 8.89562 24.662 8.86623 24.8219 8.88573C24.9818 8.90523 25.1321 8.9727 25.2529 9.07925C25.3575 9.19386 25.4274 9.33581 25.4544 9.4886C25.4815 9.64138 25.4646 9.79871 25.4058 9.94228L21.8445 20.5608C21.793 20.726 21.6899 20.8704 21.5503 20.9726C21.4106 21.0749 21.2419 21.1296 21.0688 21.1288ZM7.38061 19.4902H20.4898L23.2319 11.3078L17.9117 13.9515C17.8164 14.0003 17.7124 14.0296 17.6057 14.0378C17.499 14.0461 17.3918 14.0331 17.2901 13.9995C17.1885 13.966 17.0946 13.9126 17.0137 13.8425C16.9329 13.7724 16.8668 13.6869 16.8193 13.591L13.9352 7.9322L11.0621 13.591C11.0146 13.6869 10.9485 13.7724 10.8676 13.8425C10.7868 13.9126 10.6928 13.966 10.5912 13.9995C10.4896 14.0331 10.3823 14.0461 10.2756 14.0378C10.1689 14.0296 10.0649 14.0003 9.96968 13.9515L4.62767 11.2751L7.38061 19.4902Z" fill="white"/>
<path d="M13.9352 16.191C13.7188 16.1882 13.512 16.101 13.359 15.9479C13.206 15.7949 13.1187 15.5881 13.1159 15.3717C13.1144 15.2646 13.1343 15.1583 13.1743 15.059C13.2142 14.9596 13.2736 14.8692 13.3488 14.793C13.424 14.7168 13.5136 14.6562 13.6124 14.6149C13.7112 14.5736 13.8172 14.5524 13.9243 14.5524C14.1416 14.5524 14.35 14.6387 14.5037 14.7923C14.6573 14.946 14.7436 15.1544 14.7436 15.3717C14.7436 15.589 14.6573 15.7974 14.5037 15.951C14.35 16.1047 14.1416 16.191 13.9243 16.191H13.9352Z" fill="white"/>
</svg>
