<svg width="27" height="27" viewBox="0 0 27 27" fill="none" xmlns="http://www.w3.org/2000/svg">
<g clip-path="url(#clip0_7_2757)">
<path d="M19.8302 16.4969C19.6129 16.4969 19.4045 16.4106 19.2508 16.2569C19.0972 16.1033 19.0109 15.8949 19.0109 15.6776C19.0097 15.5698 19.0304 15.463 19.0718 15.3635C19.1131 15.264 19.1741 15.1739 19.2512 15.0986C19.3674 14.9857 19.5134 14.9082 19.6721 14.8753C19.8307 14.8424 19.9955 14.8555 20.147 14.9129C20.2466 14.9555 20.3359 15.0188 20.4092 15.0986C20.4863 15.1739 20.5473 15.264 20.5886 15.3635C20.6299 15.463 20.6506 15.5698 20.6495 15.6776C20.65 15.7831 20.6276 15.8874 20.584 15.9835C20.5495 16.0877 20.4894 16.1816 20.4092 16.2566C20.3355 16.3332 20.246 16.3928 20.147 16.4314C20.0471 16.4749 19.9392 16.4972 19.8302 16.4969Z" fill="white"/>
<path d="M5.86888 16.4969C5.65165 16.4967 5.44339 16.4103 5.28988 16.2566C5.20967 16.1816 5.14957 16.0877 5.1151 15.9835C5.0727 15.887 5.0504 15.7829 5.04955 15.6776C5.04921 15.5686 5.07153 15.4607 5.1151 15.3608C5.19713 15.163 5.35429 15.0059 5.55207 14.9238C5.65208 14.8805 5.7599 14.8582 5.86888 14.8582C5.97785 14.8582 6.08567 14.8805 6.18568 14.9238C6.28542 14.961 6.37517 15.0208 6.44787 15.0986C6.60157 15.2521 6.68801 15.4604 6.6882 15.6776C6.69718 15.7692 6.68979 15.8617 6.66635 15.9507C6.62769 16.0529 6.56816 16.1459 6.49156 16.2238C6.41337 16.3113 6.31732 16.3809 6.20989 16.428C6.10246 16.4751 5.98617 16.4986 5.86888 16.4969Z" fill="white"/>
<path d="M13.221 11.3952C13.0315 11.3935 12.8485 11.3262 12.7031 11.2046C12.5577 11.0831 12.4589 10.915 12.4235 10.7288C12.311 10.0157 12.346 9.28716 12.5264 8.58815C12.7068 7.88914 13.0287 7.23458 13.4722 6.66498C14.0629 6.03877 14.7869 5.55355 15.5906 5.2453C16.3944 4.93704 17.2572 4.81366 18.1151 4.88431C18.3324 4.88431 18.5408 4.97063 18.6944 5.12428C18.8481 5.27793 18.9344 5.48633 18.9344 5.70363C18.9344 5.92093 18.8481 6.12933 18.6944 6.28298C18.5408 6.43664 18.3324 6.52296 18.1151 6.52296C17.4962 6.46654 16.8724 6.54799 16.2888 6.76143C15.7051 6.97488 15.176 7.31503 14.7395 7.75741C14.1733 8.53523 13.9341 9.50377 14.0731 10.4557C14.1085 10.6682 14.0599 10.8862 13.9376 11.0635C13.8153 11.2409 13.6288 11.3637 13.4176 11.4061L13.221 11.3952Z" fill="white"/>
<path d="M6.66634 21.5331C5.10468 21.5331 3.60699 20.9127 2.50273 19.8084C1.39847 18.7042 0.778107 17.2065 0.778107 15.6448C0.778107 14.0832 1.39847 12.5855 2.50273 11.4812C3.60699 10.377 5.10468 9.75659 6.66634 9.75659C6.88364 9.75659 7.09204 9.84291 7.24569 9.99657C7.39934 10.1502 7.48566 10.3586 7.48566 10.5759C7.48566 10.7932 7.39934 11.0016 7.24569 11.1553C7.09204 11.3089 6.88364 11.3952 6.66634 11.3952C6.09969 11.3849 5.53677 11.4889 5.01122 11.701C4.48566 11.9131 4.00825 12.2289 3.60752 12.6297C2.8163 13.4294 2.37251 14.5089 2.37251 15.6339C2.37251 16.7589 2.8163 17.8384 3.60752 18.6381C4.4185 19.4032 5.49129 19.8294 6.60625 19.8294C7.72122 19.8294 8.79401 19.4032 9.60499 18.6381C9.75861 18.4847 9.96686 18.3985 10.184 18.3985C10.4011 18.3985 10.6093 18.4847 10.763 18.6381C10.9164 18.7917 11.0026 19 11.0026 19.2171C11.0026 19.4342 10.9164 19.6425 10.763 19.7961C9.67919 20.8916 8.20724 21.5157 6.66634 21.5331Z" fill="white"/>
<path d="M19.8302 21.533C19.0545 21.5302 18.2871 21.3732 17.5726 21.0713C16.8581 20.7693 16.2107 20.3284 15.668 19.7742C15.5146 19.6206 15.4284 19.4123 15.4284 19.1952C15.4284 18.9781 15.5146 18.7698 15.668 18.6162C15.8217 18.4628 16.0299 18.3766 16.247 18.3766C16.4641 18.3766 16.6724 18.4628 16.826 18.6162C17.637 19.3814 18.7098 19.8076 19.8248 19.8076C20.9397 19.8076 22.0125 19.3814 22.8235 18.6162C23.6147 17.8165 24.0585 16.737 24.0585 15.612C24.0585 14.4871 23.6147 13.4075 22.8235 12.6078C22.4292 12.2137 21.9607 11.9016 21.445 11.6897C20.9293 11.4779 20.3768 11.3703 19.8193 11.3734C19.602 11.3734 19.3936 11.287 19.2399 11.1334C19.0863 10.9797 19 10.7713 19 10.554C19 10.3367 19.0863 10.1283 19.2399 9.97469C19.3936 9.82103 19.602 9.73471 19.8193 9.73471C21.3809 9.73471 22.8786 10.3551 23.9829 11.4593C25.0872 12.5636 25.7075 14.0613 25.7075 15.6229C25.7075 17.1846 25.0872 18.6823 23.9829 19.7865C22.8786 20.8908 21.3809 21.5112 19.8193 21.5112L19.8302 21.533Z" fill="white"/>
<path d="M16.2579 20.0364H10.184C9.96667 20.0364 9.75827 19.95 9.60461 19.7964C9.45096 19.6427 9.36464 19.4343 9.36464 19.217C9.36464 18.9997 9.45096 18.7913 9.60461 18.6377C9.75827 18.484 9.96667 18.3977 10.184 18.3977H16.2579C16.4752 18.3977 16.6836 18.484 16.8373 18.6377C16.9909 18.7913 17.0772 18.9997 17.0772 19.217C17.0772 19.4343 16.9909 19.6427 16.8373 19.7964C16.6836 19.95 16.4752 20.0364 16.2579 20.0364Z" fill="white"/>
<path d="M19.8302 11.3952H6.66636C6.44906 11.3952 6.24066 11.3089 6.08701 11.1553C5.93335 11.0016 5.84703 10.7932 5.84703 10.5759C5.84703 10.3586 5.93335 10.1502 6.08701 9.99657C6.24066 9.84291 6.44906 9.75659 6.66636 9.75659H19.8848C20.1021 9.75659 20.3105 9.84291 20.4642 9.99657C20.6178 10.1502 20.7042 10.3586 20.7042 10.5759C20.7042 10.7932 20.6178 11.0016 20.4642 11.1553C20.3105 11.3089 20.1021 11.3952 19.8848 11.3952H19.8302Z" fill="white"/>
</g>
<defs>
<clipPath id="clip0_7_2757">
<rect width="26.2185" height="26.2185" fill="white" transform="translate(0.111755 0.110352)"/>
</clipPath>
</defs>
</svg>
