<svg width="38" height="37" viewBox="0 0 38 37" fill="none" xmlns="http://www.w3.org/2000/svg">
<circle cx="18.9751" cy="18.0355" r="18.035" fill="white"/>
<path d="M10.8251 26.5226H14.5332V14.518H10.8251V26.5226Z" fill="#443E65"/>
<path d="M10.488 10.6856C10.488 11.8691 11.4431 12.8272 12.6791 12.8272C13.859 12.8272 14.8141 11.8691 14.8141 10.6856C14.8141 9.50202 13.859 8.48755 12.6791 8.48755C11.4431 8.48755 10.488 9.50202 10.488 10.6856Z" fill="#443E65"/>
<path d="M24.7587 26.5226H28.523V19.9285C28.523 16.716 27.7926 14.1799 24.0283 14.1799C22.2304 14.1799 20.9944 15.1943 20.4887 16.1524H20.4325V14.518H16.8929V26.5226H20.6011V20.6048C20.6011 19.0268 20.882 17.5051 22.8484 17.5051C24.7587 17.5051 24.7587 19.3086 24.7587 20.6612V26.5226Z" fill="#443E65"/>
</svg>
