<svg width="20" height="20" viewBox="0 0 20 20" fill="none" xmlns="http://www.w3.org/2000/svg">
<path d="M0.909955 19.7784C0.798364 19.786 0.686416 19.7703 0.581192 19.7324C0.475967 19.6945 0.379755 19.6351 0.29864 19.5581C0.217525 19.4811 0.153273 19.3881 0.109947 19.285C0.0666201 19.1819 0.0451622 19.0709 0.0469302 18.9591V3.66497C0.0468672 3.49945 0.0969328 3.3378 0.190535 3.2013C0.284136 3.0648 0.416885 2.95985 0.5713 2.90026L6.15365 0.715388C6.34284 0.638857 6.55437 0.638857 6.74356 0.715388L11.9545 2.74732L18.1814 0.704464C18.3031 0.662172 18.4333 0.650019 18.5608 0.669045C18.6882 0.68807 18.8092 0.737708 18.9133 0.813708C19.0192 0.889322 19.1053 0.98939 19.1643 1.10541C19.2232 1.22142 19.2533 1.34996 19.252 1.48009V16.7742C19.2518 16.9455 19.198 17.1125 19.0981 17.2516C18.9981 17.3907 18.8571 17.495 18.6948 17.5498L12.1402 19.7347C11.9566 19.8006 11.7558 19.8006 11.5721 19.7347L6.43768 17.7028L1.16122 19.7238C1.08036 19.7534 0.995816 19.7718 0.909955 19.7784V19.7784ZM6.48138 15.9986C6.58687 15.9981 6.69122 16.0205 6.78726 16.0641L11.8343 18.0851L17.5915 16.1406V2.57253L12.1293 4.3532C11.9484 4.41319 11.753 4.41319 11.5721 4.3532L6.43768 2.35404L1.68558 4.17841V17.7683L6.15365 16.0532C6.24434 16.0183 6.34051 15.9998 6.43768 15.9986H6.48138Z" fill="white"/>
<path d="M6.4377 17.6372C6.32632 17.6374 6.21609 17.6148 6.11372 17.571C6.01136 17.5271 5.91901 17.4628 5.84233 17.382C5.76565 17.3012 5.70624 17.2057 5.66773 17.1012C5.62922 16.9967 5.61243 16.8854 5.61837 16.7742V1.48009C5.61837 1.26279 5.70469 1.0544 5.85834 0.900742C6.012 0.747088 6.2204 0.660767 6.4377 0.660767C6.655 0.660767 6.86339 0.747088 7.01705 0.900742C7.1707 1.0544 7.25702 1.26279 7.25702 1.48009V16.7742C7.26459 16.8858 7.24893 16.9977 7.21101 17.103C7.1731 17.2082 7.11376 17.3044 7.03675 17.3855C6.95974 17.4666 6.86674 17.5309 6.76363 17.5742C6.66051 17.6175 6.54953 17.639 6.4377 17.6372V17.6372Z" fill="white"/>
<path d="M11.9326 19.7784C11.7153 19.7784 11.5069 19.6921 11.3533 19.5384C11.1996 19.3848 11.1133 19.1764 11.1133 18.9591V3.66497C11.1133 3.44767 11.1996 3.23927 11.3533 3.08562C11.5069 2.93196 11.7153 2.84564 11.9326 2.84564C12.1499 2.84564 12.3583 2.93196 12.512 3.08562C12.6656 3.23927 12.752 3.44767 12.752 3.66497V18.9591C12.7491 19.1755 12.6619 19.3823 12.5089 19.5353C12.3558 19.6883 12.1491 19.7756 11.9326 19.7784V19.7784Z" fill="white"/>
</svg>
