<svg width="37" height="37" viewBox="0 0 37 37" fill="none" xmlns="http://www.w3.org/2000/svg">
<circle cx="18.8584" cy="18.0355" r="18.035" fill="white"/>
<path d="M27.27 13.817C28.0988 13.1954 28.8447 12.4494 29.4249 11.5792C28.679 11.9107 27.8087 12.1594 26.9384 12.2422C27.8501 11.7035 28.5132 10.8747 28.8447 9.83867C28.0159 10.336 27.0628 10.7089 26.1096 10.9161C25.2808 10.0459 24.1619 9.54858 22.9187 9.54858C20.5151 9.54858 18.5674 11.4963 18.5674 13.8999C18.5674 14.2314 18.6088 14.5629 18.6917 14.8944C15.0864 14.6872 11.854 12.9467 9.69908 10.336C9.32612 10.9576 9.11891 11.7035 9.11891 12.5323C9.11891 14.0242 9.86485 15.3503 11.0666 16.1377C10.3621 16.0962 9.65764 15.9305 9.07747 15.5989V15.6404C9.07747 17.7539 10.5693 19.4944 12.5585 19.9088C12.227 19.9917 11.8126 20.0745 11.4396 20.0745C11.1495 20.0745 10.9009 20.0331 10.6108 19.9917C11.1495 21.7322 12.7657 22.9754 14.672 23.0168C13.1801 24.1772 11.3153 24.8817 9.28468 24.8817C8.91171 24.8817 8.58018 24.8402 8.24866 24.7988C10.1549 26.042 12.4342 26.7465 14.9206 26.7465C22.9187 26.7465 27.27 20.1574 27.27 14.3972C27.27 14.1899 27.27 14.0242 27.27 13.817Z" fill="#443E65"/>
</svg>
